<svg xmlns="http://www.w3.org/2000/svg" width="740" height="168" viewBox="0 0 740 168">
<rect x="0" y="0" width="740" height="168" rx="14" fill="#0d1117"/>
<text x="18" y="30" fill="#e6edf3" font-size="18" font-family="ui-sans-serif, system-ui, -apple-system, Segoe UI, Roboto, Arial">Languages used across repositories</text>
<text x="18" y="48" fill="#8b949e" font-size="12" font-family="ui-sans-serif, system-ui, -apple-system, Segoe UI, Roboto, Arial">GitHub Linguist byte counts</text>
<text x="18" y="63" fill="#e6edf3" font-size="14" font-family="ui-sans-serif, system-ui, -apple-system, Segoe UI, Roboto, Arial">Python</text>
<text x="210" y="63" fill="#8b949e" font-size="13" text-anchor="end" font-family="ui-sans-serif, system-ui, -apple-system, Segoe UI, Roboto, Arial">90.2%</text>
<rect x="240" y="54" width="482" height="10" rx="5" fill="#30363d"/>
<rect x="240" y="54" width="434.93" height="10" rx="5" fill="#58a6ff"/>
<text x="18" y="89" fill="#e6edf3" font-size="14" font-family="ui-sans-serif, system-ui, -apple-system, Segoe UI, Roboto, Arial">HTML</text>
<text x="210" y="89" fill="#8b949e" font-size="13" text-anchor="end" font-family="ui-sans-serif, system-ui, -apple-system, Segoe UI, Roboto, Arial">3.9%</text>
<rect x="240" y="80" width="482" height="10" rx="5" fill="#30363d"/>
<rect x="240" y="80" width="18.68" height="10" rx="5" fill="#58a6ff"/>
<text x="18" y="115" fill="#e6edf3" font-size="14" font-family="ui-sans-serif, system-ui, -apple-system, Segoe UI, Roboto, Arial">CSS</text>
<text x="210" y="115" fill="#8b949e" font-size="13" text-anchor="end" font-family="ui-sans-serif, system-ui, -apple-system, Segoe UI, Roboto, Arial">3.8%</text>
<rect x="240" y="106" width="482" height="10" rx="5" fill="#30363d"/>
<rect x="240" y="106" width="18.44" height="10" rx="5" fill="#58a6ff"/>
<text x="18" y="141" fill="#e6edf3" font-size="14" font-family="ui-sans-serif, system-ui, -apple-system, Segoe UI, Roboto, Arial">JavaScript</text>
<text x="210" y="141" fill="#8b949e" font-size="13" text-anchor="end" font-family="ui-sans-serif, system-ui, -apple-system, Segoe UI, Roboto, Arial">2.1%</text>
<rect x="240" y="132" width="482" height="10" rx="5" fill="#30363d"/>
<rect x="240" y="132" width="9.95" height="10" rx="5" fill="#58a6ff"/>
</svg>