<svg xmlns="http://www.w3.org/2000/svg" width="740" height="194" viewBox="0 0 740 194">
<rect x="0" y="0" width="740" height="194" rx="14" fill="#ffffff"/>
<text x="18" y="30" fill="#24292f" font-size="18" font-family="ui-sans-serif, system-ui, -apple-system, Segoe UI, Roboto, Arial">Languages used across repositories</text>
<text x="18" y="48" fill="#57606a" font-size="12" font-family="ui-sans-serif, system-ui, -apple-system, Segoe UI, Roboto, Arial">GitHub Linguist byte counts</text>
<text x="18" y="63" fill="#24292f" font-size="14" font-family="ui-sans-serif, system-ui, -apple-system, Segoe UI, Roboto, Arial">Jupyter Notebook</text>
<text x="210" y="63" fill="#57606a" font-size="13" text-anchor="end" font-family="ui-sans-serif, system-ui, -apple-system, Segoe UI, Roboto, Arial">98.2%</text>
<rect x="240" y="54" width="482" height="10" rx="5" fill="#eaeef2"/>
<rect x="240" y="54" width="473.10" height="10" rx="5" fill="#0969da"/>
<text x="18" y="89" fill="#24292f" font-size="14" font-family="ui-sans-serif, system-ui, -apple-system, Segoe UI, Roboto, Arial">Python</text>
<text x="210" y="89" fill="#57606a" font-size="13" text-anchor="end" font-family="ui-sans-serif, system-ui, -apple-system, Segoe UI, Roboto, Arial">1.6%</text>
<rect x="240" y="80" width="482" height="10" rx="5" fill="#eaeef2"/>
<rect x="240" y="80" width="7.91" height="10" rx="5" fill="#0969da"/>
<text x="18" y="115" fill="#24292f" font-size="14" font-family="ui-sans-serif, system-ui, -apple-system, Segoe UI, Roboto, Arial">CSS</text>
<text x="210" y="115" fill="#57606a" font-size="13" text-anchor="end" font-family="ui-sans-serif, system-ui, -apple-system, Segoe UI, Roboto, Arial">0.1%</text>
<rect x="240" y="106" width="482" height="10" rx="5" fill="#eaeef2"/>
<rect x="240" y="106" width="0.41" height="10" rx="5" fill="#0969da"/>
<text x="18" y="141" fill="#24292f" font-size="14" font-family="ui-sans-serif, system-ui, -apple-system, Segoe UI, Roboto, Arial">HTML</text>
<text x="210" y="141" fill="#57606a" font-size="13" text-anchor="end" font-family="ui-sans-serif, system-ui, -apple-system, Segoe UI, Roboto, Arial">0.1%</text>
<rect x="240" y="132" width="482" height="10" rx="5" fill="#eaeef2"/>
<rect x="240" y="132" width="0.36" height="10" rx="5" fill="#0969da"/>
<text x="18" y="167" fill="#24292f" font-size="14" font-family="ui-sans-serif, system-ui, -apple-system, Segoe UI, Roboto, Arial">JavaScript</text>
<text x="210" y="167" fill="#57606a" font-size="13" text-anchor="end" font-family="ui-sans-serif, system-ui, -apple-system, Segoe UI, Roboto, Arial">0.0%</text>
<rect x="240" y="158" width="482" height="10" rx="5" fill="#eaeef2"/>
<rect x="240" y="158" width="0.22" height="10" rx="5" fill="#0969da"/>
</svg>